<svg width="22" height="22" viewBox="0 0 22 22" fill="none" xmlns="http://www.w3.org/2000/svg">
<path fill-rule="evenodd" clip-rule="evenodd" d="M2.35985 13.5314C2.85878 14.0274 2.85877 14.8317 2.35984 15.3277L2.33428 15.3531C1.83535 15.8492 1.02643 15.8492 0.527507 15.3531C0.0285846 14.8571 0.0285922 14.0528 0.527525 13.5568L0.553076 13.5314C1.05201 13.0353 1.86093 13.0353 2.35985 13.5314Z" fill="#E4E4E7" fill-opacity="0.2"/>
<path fill-rule="evenodd" clip-rule="evenodd" d="M8.36617 13.914C8.86419 14.411 8.86273 15.2152 8.3629 15.7104L4.82399 19.2161C4.32416 19.7113 3.51524 19.7098 3.01722 19.2129C2.51919 18.716 2.52065 17.9117 3.02048 17.4166L6.55939 13.9108C7.05922 13.4156 7.86814 13.4171 8.36617 13.914Z" fill="#E4E4E7" fill-opacity="0.5"/>
<path fill-rule="evenodd" clip-rule="evenodd" d="M13.1693 19.949C13.5607 19.3653 14.3539 19.2076 14.941 19.5967L15.0176 19.6475C15.6047 20.0366 15.7634 20.8253 15.372 21.409C14.9806 21.9927 14.1874 22.1504 13.6003 21.7613L13.5236 21.7105C12.9365 21.3213 12.7779 20.5327 13.1693 19.949Z" fill="#E4E4E7" fill-opacity="0.2"/>
<path fill-rule="evenodd" clip-rule="evenodd" d="M21.6003 13.4552C22.0992 13.9512 22.0992 14.7555 21.6003 15.2515L19.8627 16.979C19.3638 17.475 18.5549 17.475 18.056 16.979C17.557 16.483 17.557 15.6787 18.056 15.1827L19.7935 13.4552C20.2924 12.9591 21.1013 12.9591 21.6003 13.4552Z" fill="#E4E4E7" fill-opacity="0.5"/>
<path fill-rule="evenodd" clip-rule="evenodd" d="M21.6258 7.06603C22.1247 7.56208 22.1247 8.36633 21.6258 8.86237L8.78608 21.628C8.28715 22.124 7.47823 22.124 6.9793 21.628C6.48037 21.1319 6.48037 20.3277 6.9793 19.8316L19.819 7.06603C20.318 6.56998 21.1269 6.56998 21.6258 7.06603Z" fill="#E4E4E7"/>
<path fill-rule="evenodd" clip-rule="evenodd" d="M19.1983 3.14109C19.6973 3.63713 19.6973 4.44138 19.1983 4.93743L11.8139 12.2792C11.315 12.7753 10.5061 12.7753 10.0071 12.2792C9.5082 11.7832 9.5082 10.9789 10.0071 10.4829L17.3916 3.14109C17.8905 2.64504 18.6994 2.64504 19.1983 3.14109Z" fill="#E4E4E7"/>
<path fill-rule="evenodd" clip-rule="evenodd" d="M15.3011 0.650873C15.8004 1.14659 15.8009 1.95084 15.3023 2.44722L5.80988 11.8976C5.31128 12.3939 4.50236 12.3945 4.0031 11.8988C3.50384 11.4031 3.50329 10.5988 4.00188 10.1024L13.4943 0.652081C13.9929 0.155701 14.8018 0.15516 15.3011 0.650873Z" fill="#E4E4E7"/>
<path fill-rule="evenodd" clip-rule="evenodd" d="M5.9003 3.67613C6.39836 4.17303 6.39697 4.97728 5.89719 5.47247L2.17942 9.15607C1.67963 9.65126 0.87071 9.64988 0.372642 9.15298C-0.125426 8.65608 -0.124034 7.85183 0.375752 7.35664L4.09352 3.67303C4.59331 3.17784 5.40223 3.17923 5.9003 3.67613Z" fill="#E4E4E7" fill-opacity="0.5"/>
<path fill-rule="evenodd" clip-rule="evenodd" d="M8.17651 0C8.8821 0 9.4541 0.568691 9.4541 1.27021V1.39723C9.4541 2.09874 8.8821 2.66744 8.17651 2.66744C7.47092 2.66744 6.89893 2.09874 6.89893 1.39723V1.27021C6.89893 0.568691 7.47092 0 8.17651 0Z" fill="#E4E4E7" fill-opacity="0.2"/>
</svg>
