<svg width="23" height="22" viewBox="0 0 23 22" fill="none" xmlns="http://www.w3.org/2000/svg">
<path d="M3.90713 0.412777C4.11078 -0.137592 4.88922 -0.137592 5.09287 0.412777L5.93579 2.69072C5.99982 2.86376 6.13624 3.00018 6.30928 3.06421L8.58722 3.90713C9.13759 4.11078 9.13759 4.88922 8.58722 5.09287L6.30928 5.93579C6.13624 5.99982 5.99982 6.13624 5.93579 6.30928L5.09287 8.58722C4.88922 9.13759 4.11078 9.13759 3.90713 8.58722L3.06421 6.30928C3.00018 6.13624 2.86376 5.99982 2.69072 5.93579L0.412777 5.09287C-0.137592 4.88922 -0.137592 4.11078 0.412777 3.90713L2.69072 3.06421C2.86376 3.00018 3.00018 2.86376 3.06421 2.69072L3.90713 0.412777Z" fill="#E4E4E7"/>
<path d="M12.4887 6.72523C12.879 5.75826 14.371 5.75826 14.7613 6.72523L16.3769 10.7275C16.4996 11.0315 16.7611 11.2712 17.0928 11.3837L21.4588 12.8646C22.5137 13.2224 22.5137 14.5901 21.4588 14.9479L17.0928 16.4288C16.7611 16.5413 16.4996 16.781 16.3769 17.085L14.7613 21.0873C14.371 22.0542 12.879 22.0542 12.4887 21.0873L10.8731 17.085C10.7504 16.781 10.4889 16.5413 10.1572 16.4288L5.79116 14.9479C4.73628 14.5901 4.73628 13.2224 5.79116 12.8646L10.1572 11.3837C10.4889 11.2712 10.7504 11.0315 10.8731 10.7275L12.4887 6.72523Z" fill="#E4E4E7"/>
</svg>
